<svg width="122" height="22" viewBox="0 0 122 22" fill="none" xmlns="http://www.w3.org/2000/svg">
<g clip-path="url(#clip0_737_1906)">
<g clip-path="url(#clip1_737_1906)">
<path d="M3.569 3.392L9.273 0L14.978 3.392L12.837 4.585L9.273 2.475L5.617 4.585L3.569 3.392ZM14.89 7.608L12.837 6.415L9.273 8.525L5.617 6.415L3.564 7.607V10.083L7.133 12.193V16.503L9.186 17.785L11.238 16.503V12.288L14.807 10.178V7.612H14.89V7.608ZM14.89 14.392V11.917L12.838 13.2V15.58L14.89 14.392ZM16.406 15.215L12.842 17.325V19.8L18.551 16.408V9.627L16.411 11L16.406 15.215ZM14.353 5.503L16.406 6.785V9.261L18.458 7.978V5.503L16.406 4.22L14.353 5.503ZM7.133 18.242V20.717L9.186 22L11.238 20.717V18.242L9.186 19.525L7.133 18.242ZM3.564 14.393L5.617 15.585V13.11L3.564 11.827V14.393ZM7.133 5.503L9.186 6.785L11.326 5.503L9.273 4.22L7.133 5.503ZM2.053 6.785L4.193 5.502L2.053 4.219L0 5.503V7.978L2.053 9.261V6.785ZM2.053 11L0 9.717V16.497L5.709 19.89V17.415L2.14 15.305V10.995L2.053 11ZM34.952 13.842C34.952 12.193 34.06 11.366 32.724 10.814C33.617 10.358 34.328 9.532 34.328 8.158C34.328 6.234 32.812 4.951 30.404 4.951H24.875V17.234H30.579C33.168 17.139 34.952 16.042 34.952 13.842ZM31.652 8.614C31.652 9.532 30.94 9.897 29.78 9.897H27.371V7.242H29.955C31.12 7.242 31.652 7.703 31.652 8.614ZM32.369 13.475C32.369 14.393 31.657 14.849 30.496 14.849H27.376V12.193H30.408C31.744 12.097 32.369 12.649 32.369 13.475ZM47.882 4.951H45.294V12.468L39.677 4.951H37.273V17.234H39.857V9.442L45.654 17.234H47.882V4.951ZM60.988 13.842C60.988 12.193 60.095 11.366 58.759 10.814C59.652 10.358 60.364 9.532 60.364 8.158C60.364 6.234 58.847 4.951 56.439 4.951H50.91V17.234H56.614C59.203 17.139 60.988 16.042 60.988 13.842ZM57.78 8.614C57.78 9.532 57.068 9.897 55.908 9.897H53.499V7.242H56.083C57.155 7.242 57.78 7.703 57.78 8.614ZM58.404 13.475C58.404 14.393 57.692 14.849 56.531 14.849H53.411V12.193H56.444C57.78 12.097 58.404 12.649 58.404 13.475ZM76.77 15.034L75.434 13.661C74.454 14.669 73.474 15.22 72.045 15.22C69.724 15.22 68.121 13.295 68.121 10.82C68.121 8.434 69.817 6.515 72.045 6.515C73.381 6.515 74.454 7.156 75.346 8.074L76.682 6.425C75.522 5.327 74.186 4.5 72.045 4.5C68.477 4.5 65.892 7.342 65.892 10.824C65.892 14.398 68.477 17.149 71.958 17.149C74.186 17.139 75.522 16.317 76.77 15.034ZM86.935 11.827V16.958H88.988V4.675H86.935V9.808H81.231V4.675H79.178V16.958H81.231V11.827H86.935ZM98.436 4.676H96.476L91.216 17.049H93.356L94.604 14.117H100.221L101.469 17.049H103.697L98.436 4.676ZM99.509 12.097H95.409L97.461 7.242L99.509 12.097ZM106.018 4.675V16.958H108.065V4.675H106.018ZM119.747 13.2L113.326 4.766H111.454V17.049H113.507V8.249L120.104 16.958H121.888V4.675H119.835V13.2H119.747Z" fill="white"/>
</g>
</g>
<defs>
<clipPath id="clip0_737_1906">
<rect width="122" height="22" fill="white"/>
</clipPath>
<clipPath id="clip1_737_1906">
<rect width="121.888" height="22" fill="white"/>
</clipPath>
</defs>
</svg>
