<svg width="121" height="18" viewBox="0 0 121 18" fill="none" xmlns="http://www.w3.org/2000/svg">
<g clip-path="url(#clip0_737_1931)">
<g clip-path="url(#clip1_737_1931)">
<path d="M64.882 3.38398V7.34398H64.918C65.576 6.47998 66.527 6.04798 67.77 6.04798C68.319 6.04798 68.831 6.11998 69.343 6.29998C69.818 6.47998 70.257 6.73198 70.659 7.09198C71.025 7.45198 71.354 7.88398 71.573 8.42398C71.793 8.96398 71.903 9.57598 71.903 10.296C71.903 11.088 71.756 11.808 71.464 12.492C71.171 13.176 70.696 13.716 70.074 14.112C69.453 14.508 68.685 14.724 67.734 14.724C66.381 14.724 65.43 14.292 64.882 13.464H64.845V14.508H62.285V3.34798H64.882V3.38398ZM55.118 5.83198C60.055 5.83198 59.616 11.052 59.616 11.052H52.851C53.107 12.096 54.021 12.78 55.301 12.78C56.8 12.78 57.641 11.88 57.641 11.88L59.068 13.32C58.336 14.04 57.349 14.688 55.301 14.688C52.12 14.688 50.438 12.636 50.438 10.44C50.438 8.24398 51.681 5.83198 55.118 5.83198ZM116.624 5.83198C118.745 5.83198 120.098 6.62398 120.098 6.62398L119.22 8.45998C116.404 7.01998 115.125 8.02798 115.125 8.53198C115.125 9.03598 115.637 9.07198 117.611 9.43198C119.586 9.79198 120.5 10.584 120.5 11.916C120.5 13.212 119.366 14.652 116.587 14.652C113.808 14.652 112.528 13.788 112.528 13.788L113.369 11.952C115.563 13.32 118.013 12.888 118.013 12.06C118.013 11.448 117.172 11.34 116.295 11.232L115.929 11.196C115.746 11.16 115.6 11.16 115.417 11.124C114.284 10.944 112.602 10.368 112.602 8.63998C112.638 6.94798 114.503 5.83198 116.624 5.83198ZM104.191 2.80798V9.53998L107.884 6.04798H110.919L107.263 9.50398L111.285 14.652H108.25L105.508 11.124L104.191 12.384V14.652H101.705V2.77198H104.191V2.80798ZM95.342 5.75998C97.097 5.75998 98.633 6.62398 99.474 7.91998L97.39 9.14398C96.987 8.42398 96.22 7.91998 95.342 7.91998C94.062 7.91998 93.002 8.96398 93.002 10.26C93.002 11.556 94.026 12.6 95.342 12.6C96.183 12.6 96.914 12.132 97.317 11.484L99.401 12.672C98.56 13.932 97.024 14.76 95.305 14.76C92.636 14.76 90.479 12.78 90.479 10.296C90.515 7.77598 92.673 5.75998 95.342 5.75998ZM83.86 5.75998C86.529 5.75998 88.687 7.73998 88.687 10.224C88.687 12.672 86.529 14.688 83.86 14.688C81.191 14.688 79.033 12.708 79.033 10.224C79.033 7.77598 81.191 5.75998 83.86 5.75998ZM39.943 6.01198V14.58H37.274V6.01198H39.943ZM34.86 3.41998V5.57998H28.863V8.42398H34.165V10.548H28.863V14.616H26.194V3.45598H34.86V3.41998ZM45.684 7.09198C45.684 7.09198 46.635 5.61598 48.609 5.86798V8.24398C48.609 8.24398 46.489 7.70398 45.684 9.86398V14.58H43.124V6.01198H45.574L45.684 7.01998V7.09198ZM76.473 2.77198V14.544H73.767V2.77198H76.473ZM67.003 7.95598C65.503 7.95598 64.772 8.85598 64.772 10.62C64.772 11.304 64.955 11.844 65.357 12.312C65.723 12.78 66.308 12.996 67.076 12.996C67.588 12.996 67.99 12.852 68.319 12.6C68.648 12.348 68.867 12.024 69.014 11.628C69.16 11.232 69.233 10.872 69.233 10.476C69.233 9.75598 69.05 9.14398 68.721 8.67598C68.319 8.17198 67.77 7.95598 67.003 7.95598ZM83.86 7.88398C82.58 7.88398 81.52 8.92798 81.52 10.224C81.52 11.52 82.544 12.564 83.86 12.564C85.14 12.564 86.164 11.52 86.164 10.224C86.164 8.92798 85.14 7.88398 83.86 7.88398ZM55.155 7.70398C53.838 7.70398 53.107 8.49598 52.888 9.53998H57.276C57.239 9.25198 56.8 7.70398 55.155 7.70398ZM38.627 1.97998C39.504 1.97998 40.199 2.62798 40.199 3.41998C40.199 4.21198 39.504 4.85998 38.627 4.85998C37.749 4.85998 37.054 4.21198 37.054 3.41998C37.054 2.62798 37.749 1.97998 38.627 1.97998Z" fill="white"/>
<path d="M17.272 0C17.674 0 18.003 0.324 18.003 0.72V17.28C18.003 17.676 17.674 18 17.272 18H0.231C-0.171 18 -0.5 17.676 -0.5 17.28V0.72C-0.5 0.324 -0.171 0 0.231 0H17.272ZM8.751 5.004L3.632 12.996H13.907L8.751 5.004Z" fill="white"/>
</g>
</g>
<defs>
<clipPath id="clip0_737_1931">
<rect width="121" height="18" fill="white" transform="translate(-0.5)"/>
</clipPath>
<clipPath id="clip1_737_1931">
<rect width="121" height="18" fill="white" transform="translate(-0.5)"/>
</clipPath>
</defs>
</svg>
