<svg width="109" height="33" viewBox="0 0 109 33" fill="none" xmlns="http://www.w3.org/2000/svg">
<g clip-path="url(#clip0_737_1942)">
<g clip-path="url(#clip1_737_1942)">
<path d="M31.612 31.8L24.325 29.609L18.831 32.926L14.997 32.924L9.498 29.609L2.215 31.799L0 24.249L2.215 15.868L0 8.782L2.215 0L13.596 6.865H20.231L31.612 0L33.827 8.782L31.612 15.868L33.827 24.248L31.612 31.8Z" fill="#F7F7F7"/>
<path d="M2.10199 0L13.482 6.87L13.029 11.584L2.10199 0ZM9.38599 24.251L14.393 28.102L9.38599 29.608V24.251ZM13.991 17.883L13.029 11.587L6.86899 15.868L6.86599 15.867V15.87L6.88499 20.277L9.38299 17.883H13.991ZM31.495 0L20.115 6.87L20.566 11.584L31.495 0ZM24.214 24.251L19.207 28.102L24.214 29.608V24.251ZM26.73 15.87H26.732H26.73ZM26.73 15.87V15.867L26.729 15.868L20.568 11.587L19.606 17.883H24.213L26.713 20.277L26.73 15.87Z" fill="#F7F7F7"/>
<path d="M9.499 29.623L2.215 31.813L0 24.265H9.499V29.623ZM14.105 17.897L15.497 26.999L13.568 21.939L6.997 20.292L9.496 17.897H14.105ZM24.328 29.623L31.612 31.813L33.827 24.265H24.328V29.623ZM19.722 17.897L18.331 26.999L20.259 21.939L26.83 20.292L24.329 17.897H19.722Z" fill="#ABABAB"/>
<path d="M0 24.2949L2.215 15.9139H6.98L6.997 20.3229L13.569 21.9689L15.497 27.0299L14.506 28.1449L9.499 24.2939L0 24.2949ZM33.828 24.2949L31.612 15.9139H26.848L26.83 20.3229L20.259 21.9689L18.331 27.0299L19.322 28.1449L24.329 24.2939H33.827L33.828 24.2949ZM20.232 6.91089H13.596L13.145 11.6249L15.497 27.0239H18.331L20.684 11.6249L20.232 6.91089Z" fill="#D1D1D1"/>
<path d="M2.215 0L0 8.782L2.215 15.868H6.98L13.143 11.584L2.215 0ZM12.73 19.712H10.572L9.397 20.875L13.572 21.92L12.73 19.71V19.712ZM31.612 0L33.827 8.782L31.612 15.868H26.847L20.684 11.584L31.612 0ZM21.101 19.712H23.262L24.437 20.877L20.257 21.923L21.101 19.71V19.712ZM18.829 29.921L19.322 28.101L18.331 26.986H15.496L14.505 28.101L14.998 29.921" fill="#A3A3A3"/>
<path d="M18.718 29.946V32.951H14.886V29.946H18.718Z" fill="#C0C4CD"/>
<path d="M9.457 29.6801L14.956 33.0001V29.9941L14.464 28.1741L9.457 29.6801ZM24.285 29.6801L18.785 33.0001V29.9941L19.277 28.1741L24.285 29.6801Z" fill="white"/>
<path d="M80.783 25.625V32.783H77.166V27.824L73.045 28.314C72.14 28.42 71.742 28.723 71.742 29.28C71.742 30.096 72.498 30.44 74.119 30.44C75.107 30.44 76.202 30.29 77.168 30.031L75.297 32.739C74.54 32.911 73.803 32.996 73.026 32.996C69.746 32.996 67.875 31.664 67.875 29.299C67.875 27.214 69.346 26.119 72.69 25.731L77.107 25.207C76.868 23.895 75.899 23.324 73.972 23.324C72.163 23.324 70.166 23.797 68.379 24.678L68.947 21.475C70.608 20.766 72.501 20.4 74.414 20.4C78.621 20.4 80.786 22.185 80.786 25.622L80.783 25.625ZM48.251 16.663L44.298 32.782H48.251L50.213 24.682L53.613 28.849H57.735L61.136 24.682L63.097 32.782H67.05L63.097 16.661L55.673 25.673L48.249 16.661L48.251 16.663ZM63.097 0.541016L55.673 9.55302L48.251 0.541016L44.298 16.663H48.251L50.213 8.56301L53.613 12.729H57.735L61.136 8.56301L63.097 16.663H67.05L63.097 0.541016ZM90.287 25.475L87.091 25.002C86.292 24.874 85.977 24.615 85.977 24.164C85.977 23.433 86.755 23.111 88.354 23.111C90.205 23.111 91.866 23.498 93.612 24.336L93.171 21.178C91.761 20.662 90.143 20.405 88.461 20.405C84.529 20.405 82.382 21.802 82.382 24.316C82.382 26.274 83.56 27.369 86.062 27.756L89.302 28.25C90.121 28.379 90.458 28.701 90.458 29.217C90.458 29.948 89.702 30.292 88.166 30.292C86.148 30.292 83.96 29.798 82.173 28.916L82.531 32.075C84.067 32.656 86.065 33 87.936 33C91.974 33 94.076 31.559 94.076 29.001C94.076 26.959 92.899 25.862 90.292 25.477L90.287 25.475ZM95.483 18.101V32.782H99.099V18.101H95.483ZM103.324 26.184L108.353 20.615H103.852L99.099 26.376L104.167 32.78H108.732L103.324 26.182V26.184ZM94.978 13.18C94.978 15.543 96.85 16.875 100.13 16.875C100.907 16.875 101.644 16.789 102.4 16.619L104.272 13.911C103.305 14.168 102.21 14.32 101.222 14.32C99.603 14.32 98.846 13.976 98.846 13.159C98.846 12.6 99.246 12.3 100.149 12.193L104.27 11.704V16.662H107.886V9.50401C107.886 6.06602 105.72 4.28302 101.514 4.28302C99.599 4.28302 97.708 4.64802 96.047 5.35802L95.478 8.56002C97.265 7.67802 99.263 7.20602 101.071 7.20602C102.998 7.20602 103.968 7.77602 104.206 9.08902L99.789 9.61402C96.445 10.001 94.973 11.096 94.973 13.181L94.978 13.179V13.18ZM84.864 12.406C84.864 15.374 86.546 16.878 89.868 16.878C91.193 16.878 92.288 16.662 93.338 16.168L93.8 12.923C92.79 13.545 91.759 13.867 90.729 13.867C89.172 13.867 88.478 13.223 88.478 11.782V7.48302H93.966V4.49602H88.477V1.96002L81.6 5.67802V7.48302H84.859V12.405L84.863 12.407L84.864 12.406ZM81.309 11.053V11.784H71.535C71.976 13.273 73.285 13.954 75.611 13.954C77.462 13.954 79.187 13.567 80.72 12.816L80.28 15.955C78.87 16.556 77.083 16.88 75.253 16.88C70.395 16.88 67.746 14.687 67.746 10.626C67.746 6.56402 70.438 4.28502 74.602 4.28502C78.765 4.28502 81.31 6.75702 81.31 11.055L81.309 11.053ZM71.488 9.29002H77.668C77.343 7.86402 76.271 7.11902 74.559 7.11902C72.847 7.11902 71.831 7.84402 71.488 9.29002Z" fill="white"/>
</g>
</g>
<defs>
<clipPath id="clip0_737_1942">
<rect width="109" height="33" fill="white"/>
</clipPath>
<clipPath id="clip1_737_1942">
<rect width="108.732" height="33" fill="white"/>
</clipPath>
</defs>
</svg>
