<svg width="116" height="17" viewBox="0 0 116 17" fill="none" xmlns="http://www.w3.org/2000/svg">
<g clip-path="url(#clip0_737_1895)">
<g clip-path="url(#clip1_737_1895)">
<path d="M19.1999 13.4041L16.0139 16.7681C15.8749 16.9161 15.6789 17.0001 15.4749 17.0001H0.369904C0.222904 17.0001 0.0899038 16.9141 0.0309038 16.7811C-0.0280962 16.6481 -0.0010962 16.4941 0.0989038 16.3871L3.2819 13.0231C3.4209 12.8751 3.6159 12.7911 3.8209 12.7911H18.9249C19.0739 12.7881 19.2099 12.8731 19.2699 13.0071C19.3299 13.1411 19.3029 13.2971 19.1999 13.4041ZM16.0139 6.62708C15.8739 6.48008 15.6789 6.39608 15.4749 6.39408H0.369904C0.222904 6.39508 0.0899038 6.48108 0.0309038 6.61308C-0.0280962 6.74608 -0.0010962 6.90108 0.0989038 7.00708L3.2819 10.3731C3.4219 10.5211 3.6169 10.6041 3.8209 10.6061H18.9249C19.0719 10.6051 19.2049 10.5191 19.2629 10.3861C19.3209 10.2531 19.2949 10.0991 19.1949 9.99308L16.0139 6.62708ZM0.369904 4.20908H15.4749C15.6789 4.20908 15.8749 4.12508 16.0139 3.97708L19.2009 0.613077C19.3029 0.506077 19.3299 0.350077 19.2699 0.216077C19.2089 0.0820769 19.0729 -0.0029231 18.9249 7.68988e-05H3.8209C3.6169 7.68988e-05 3.4209 0.0840769 3.2819 0.232077L0.0989038 3.59708C-0.0010962 3.70308 -0.0270962 3.85708 0.0319038 3.99008C0.0909038 4.12308 0.222904 4.20908 0.369904 4.20908Z" fill="white"/>
<path d="M81.663 1.87005C82.371 1.86205 83.052 2.13205 83.557 2.62005C84.062 3.10805 84.348 3.77505 84.351 4.47205V14.974H81.654V10.67H73.778V14.974H71.081V4.47205C71.083 4.12805 71.154 3.78905 71.289 3.47205C71.706 2.49705 72.677 1.86505 73.751 1.87105H81.663V1.87005ZM81.643 4.49105H73.768V8.04905H81.643V4.49105ZM45.142 1.87005H53.253C54.327 1.86505 55.299 2.49705 55.716 3.47205C55.851 3.78905 55.921 4.12805 55.923 4.47205V12.373C55.919 13.067 55.636 13.731 55.135 14.219C54.634 14.706 53.957 14.978 53.253 14.975H45.142C44.436 14.98 43.757 14.709 43.255 14.221C42.752 13.733 42.468 13.068 42.464 12.373V4.47205C42.466 4.12805 42.537 3.78705 42.673 3.47005C43.09 2.49305 44.065 1.86105 45.142 1.87005ZM45.162 12.354H53.233L53.23 4.49105H45.162V12.354Z" fill="white"/>
<path d="M29.453 7.11092H37.534C38.609 7.10592 39.581 7.73992 39.997 8.71592C40.132 9.03292 40.202 9.37292 40.204 9.71692V12.3729C40.195 13.8169 39 14.9809 37.534 14.9739H26.948V12.3539H37.517V9.73292H29.426C28.721 9.73692 28.043 9.46392 27.543 8.97592C27.042 8.48692 26.759 7.82192 26.756 7.12792V4.47092C26.759 3.77792 27.043 3.11392 27.544 2.62592C28.044 2.13792 28.722 1.86592 29.426 1.86992H39.634V4.49092H29.453V7.11092Z" fill="white"/>
<path d="M105.206 1.86992H113.118C113.822 1.86592 114.499 2.13792 115 2.62592C115.5 3.11392 115.784 3.77792 115.788 4.47092V14.9739H113.091V10.6699H105.233V14.9739H102.536V4.47092C102.542 3.41392 103.195 2.46392 104.189 2.06392C104.512 1.93392 104.857 1.86792 105.206 1.86992ZM105.215 8.04892H113.091V4.49092H105.215V8.04892Z" fill="white"/>
<path d="M97.526 12.3539H96.447L92.59 2.9679C92.32 2.3059 91.668 1.8709 90.943 1.8699H88.55C87.833 1.8659 87.185 2.2879 86.908 2.9389C86.818 3.1499 86.771 3.3769 86.77 3.6059V14.9749H89.467V4.4909H90.546L94.401 13.8759C94.675 14.5369 95.33 14.9689 96.055 14.9669H98.448C98.918 14.9699 99.37 14.7879 99.703 14.4629C100.037 14.1369 100.226 13.6939 100.228 13.2319V1.8699H97.526V12.3529V12.3539ZM58.345 1.8699H61.042V12.3539H69.116V14.9749H61.024C60.318 14.9809 59.639 14.7099 59.136 14.2219C58.634 13.7339 58.349 13.0679 58.345 12.3729V1.8699Z" fill="white"/>
</g>
</g>
<defs>
<clipPath id="clip0_737_1895">
<rect width="116" height="17" fill="white"/>
</clipPath>
<clipPath id="clip1_737_1895">
<rect width="115.788" height="17" fill="white"/>
</clipPath>
</defs>
</svg>
