<svg width="56" height="56" viewBox="0 0 56 56" fill="none" xmlns="http://www.w3.org/2000/svg">
<mask id="path-1-inside-1_737_1552" fill="white">
<path d="M0 12C0 5.37258 5.37258 0 12 0H44C50.6274 0 56 5.37258 56 12V44C56 50.6274 50.6274 56 44 56H12C5.37258 56 0 50.6274 0 44V12Z"/>
</mask>
<path d="M0 12C0 5.37258 5.37258 0 12 0H44C50.6274 0 56 5.37258 56 12V44C56 50.6274 50.6274 56 44 56H12C5.37258 56 0 50.6274 0 44V12Z" fill="#063B71" fill-opacity="0.2"/>
<path d="M12 0V1H44V0V-1H12V0ZM56 12H55V44H56H57V12H56ZM44 56V55H12V56V57H44V56ZM0 44H1V12H0H-1V44H0ZM12 56V55C5.92487 55 1 50.0751 1 44H0H-1C-1 51.1797 4.8203 57 12 57V56ZM56 44H55C55 50.0751 50.0751 55 44 55V56V57C51.1797 57 57 51.1797 57 44H56ZM44 0V1C50.0751 1 55 5.92487 55 12H56H57C57 4.8203 51.1797 -1 44 -1V0ZM12 0V-1C4.8203 -1 -1 4.8203 -1 12H0H1C1 5.92487 5.92487 1 12 1V0Z" fill="#0C87EB" fill-opacity="0.2" mask="url(#path-1-inside-1_737_1552)"/>
<path d="M28.9684 16.5433C28.6644 16.4046 28.3342 16.3329 28 16.3329C27.6659 16.3329 27.3357 16.4046 27.0317 16.5433L17.0334 21.0933C16.8263 21.1846 16.6503 21.3341 16.5268 21.5236C16.4032 21.7132 16.3374 21.9345 16.3374 22.1608C16.3374 22.3871 16.4032 22.6084 16.5268 22.798C16.6503 22.9875 16.8263 23.137 17.0334 23.2283L27.0434 27.79C27.3474 27.9286 27.6776 28.0004 28.0117 28.0004C28.3458 28.0004 28.676 27.9286 28.98 27.79L38.99 23.24C39.1971 23.1487 39.3731 22.9992 39.4966 22.8096C39.6202 22.6201 39.686 22.3987 39.686 22.1725C39.686 21.9462 39.6202 21.7248 39.4966 21.5353C39.3731 21.3458 39.1971 21.1963 38.99 21.105L28.9684 16.5433Z" stroke="#004AAD" stroke-width="2.33333" stroke-linecap="round" stroke-linejoin="round"/>
<path d="M16.3334 28C16.3328 28.2231 16.3963 28.4418 16.5162 28.6299C16.6361 28.8181 16.8075 28.9679 17.01 29.0617L27.0434 33.6233C27.3458 33.7603 27.6739 33.8311 28.0059 33.8311C28.3378 33.8311 28.666 33.7603 28.9684 33.6233L38.9784 29.0733C39.1849 28.9805 39.3599 28.8296 39.4821 28.639C39.6044 28.4484 39.6685 28.2264 39.6667 28" stroke="#004AAD" stroke-width="2.33333" stroke-linecap="round" stroke-linejoin="round"/>
<path d="M16.3334 33.8333C16.3328 34.0564 16.3963 34.275 16.5162 34.4632C16.6361 34.6514 16.8075 34.8012 17.01 34.8949L27.0434 39.4566C27.3458 39.5935 27.6739 39.6644 28.0059 39.6644C28.3378 39.6644 28.666 39.5935 28.9684 39.4566L38.9784 34.9066C39.1849 34.8138 39.3599 34.6629 39.4821 34.4723C39.6044 34.2817 39.6685 34.0597 39.6667 33.8333" stroke="#004AAD" stroke-width="2.33333" stroke-linecap="round" stroke-linejoin="round"/>
</svg>
