<svg width="108" height="24" viewBox="0 0 108 24" fill="none" xmlns="http://www.w3.org/2000/svg">
<g clip-path="url(#clip0_737_1915)">
<g clip-path="url(#clip1_737_1915)">
<path d="M14.2227 11.6589C17.7164 11.6589 20.6361 11.0639 21.351 10.27C20.7451 9.59708 18.5523 9.06713 15.7706 8.92114V10.599C15.2716 10.625 14.7537 10.638 14.2227 10.638C13.6917 10.638 13.1738 10.625 12.6748 10.599V8.92114C9.8921 9.06713 7.7003 9.59708 7.09436 10.27C7.80929 11.0639 10.729 11.6589 14.2227 11.6589Z" fill="white"/>
<path d="M6.18627 3.8079e-06H22.5488C22.9397 3.8079e-06 23.2997 0.206985 23.4947 0.543953L28.2622 8.77819C28.5092 9.20515 28.4352 9.7461 28.0832 10.0901L14.9615 22.9759C14.5345 23.3928 13.8546 23.3928 13.4276 22.9759L0.323817 10.1081C-0.0361496 9.7551 -0.104143 9.19815 0.160832 8.76919L5.25636 0.517956C5.45734 0.194986 5.80831 -0.0009961 6.18627 3.8079e-06ZM8.01911 3.67666V5.98745H12.6807V7.5893C9.40698 7.76028 6.9512 8.46322 6.93221 9.30614V11.063C6.9512 11.9049 9.40698 12.6088 12.6807 12.7798V16.7105H15.7754V12.7788C19.0491 12.6088 21.5049 11.9049 21.5229 11.062V9.30614C21.5049 8.46322 19.0491 7.76028 15.7754 7.5893V5.98745H20.436V3.67666H8.01911Z" fill="white"/>
<path d="M34.8268 4.38854L38.6094 3.96558V7.61224H41.8921V10.7829H38.5824V15.6985C38.5824 16.8614 39.0734 17.4423 40.0533 17.4423C40.6843 17.4423 41.2092 17.3363 41.6302 17.1254L42.4961 20.2961C41.6382 20.631 40.7283 20.825 39.7643 20.878C38.2415 20.948 37.0336 20.587 36.1397 19.7941C35.2648 18.9842 34.8268 17.6183 34.8268 15.6985V10.7829H32.515V7.61224H34.8268V4.38854Z" fill="white"/>
<path d="M47.4776 17.1133C48.0905 17.5363 48.9045 17.7472 49.9204 17.7472C51.3732 17.7472 52.4941 17.4033 53.2821 16.7163L55.4099 19.0951C54.114 20.381 52.2582 21.0239 49.8414 21.0239C47.5296 21.0239 45.7348 20.399 44.4569 19.1471C43.196 17.8972 42.5651 16.2054 42.5651 14.0736C42.5651 12.0658 43.187 10.4449 44.4309 9.21203C45.6738 7.96115 47.3456 7.33521 49.4474 7.33521C51.7412 7.33521 53.4921 8.04014 54.7009 9.44901C55.9258 10.8589 56.3378 12.8587 55.9348 15.4485H46.4007C46.5057 16.1174 46.8637 16.6723 47.4776 17.1133ZM51.6012 11.1409C51.0053 10.7709 50.2883 10.5859 49.4474 10.5859C48.6945 10.5859 48.0466 10.7709 47.5036 11.1409C46.9607 11.5108 46.5927 12.0218 46.4007 12.6737H52.5461C52.5111 12.0038 52.1962 11.4928 51.6012 11.1409Z" fill="white"/>
<path d="M59.0655 4.4807L62.8482 4.05773V7.7044H66.1309V10.8751H62.8222V15.7906C62.8222 16.9535 63.3121 17.5345 64.293 17.5345C64.923 17.5345 65.4479 17.4285 65.8679 17.2175L66.7358 20.3882C65.8779 20.7232 64.967 20.9172 64.0041 20.9702C62.4802 21.0402 61.2713 20.6792 60.3794 19.8863C59.5035 19.0763 59.0655 17.7105 59.0655 15.7906V10.8751H56.7537V7.7044H59.0655V4.4807ZM71.9623 2.18091H68.1537V20.6792H71.9363V14.0728C71.9363 13.0689 72.2073 12.285 72.7502 11.721C73.3102 11.1571 74.0021 10.8751 74.8251 10.8751C75.578 10.8751 76.1739 11.1221 76.6119 11.615C77.0668 12.109 77.2948 12.8039 77.2948 13.7028V20.6792H81.0765V13.6768C81.0765 9.50123 79.3516 7.41342 75.9019 7.41342C74.2041 7.41342 72.8902 8.02137 71.9623 9.23725V2.18091Z" fill="white"/>
<path d="M95.9381 15.4485H86.404C86.509 16.1174 86.8679 16.6723 87.4809 17.1133C88.0938 17.5363 88.9077 17.7472 89.9237 17.7472C91.3775 17.7472 92.4984 17.4033 93.2853 16.7163L95.4141 19.0951C94.1173 20.381 92.2614 21.0239 89.8457 21.0239C87.5329 21.0239 85.738 20.399 84.4602 19.1471C83.1993 17.8972 82.5693 16.2054 82.5693 14.0736C82.5693 12.0658 83.1903 10.4449 84.4342 9.21203C85.677 7.96115 87.3489 7.33521 89.4507 7.33521C91.7445 7.33521 93.4953 8.04014 94.7042 9.44901C95.9301 10.8589 96.3411 12.8587 95.9381 15.4485ZM86.404 12.6737H92.5504C92.5154 12.0038 92.2004 11.4928 91.6045 11.1409C91.0095 10.7709 90.2906 10.5859 89.4507 10.5859C88.6978 10.5859 88.0498 10.7709 87.5069 11.1409C86.9639 11.5108 86.597 12.0218 86.404 12.6737Z" fill="white"/>
<path d="M101.066 7.65218H97.546V20.681H101.329V13.8886C101.329 12.9557 101.618 12.2248 102.196 11.6958C102.773 11.1499 103.49 10.8769 104.349 10.8769C105.119 10.8769 105.811 11.0969 106.424 11.5368L108 8.52409C107.107 7.73117 106.047 7.33521 104.822 7.33521C103.333 7.33521 102.178 7.91715 101.355 9.08004L101.066 7.65218Z" fill="white"/>
</g>
</g>
<defs>
<clipPath id="clip0_737_1915">
<rect width="108" height="24" fill="white"/>
</clipPath>
<clipPath id="clip1_737_1915">
<rect width="108" height="23.2888" fill="white"/>
</clipPath>
</defs>
</svg>
