<svg width="150" height="34" viewBox="0 0 150 34" fill="none" xmlns="http://www.w3.org/2000/svg">
<g clip-path="url(#clip0_737_1513)">
<g clip-path="url(#clip1_737_1513)">
<path d="M24.54 28.689L20.723 30.809L0 19.278V15.028L24.54 28.689ZM22.635 25.5L30 21.392V25.642L26.452 27.621L22.635 25.5ZM16.909 22.317L30 15.028V19.278L20.723 24.439L16.909 22.317ZM15.003 17.007L26.465 10.629L22.635 8.5L13.085 13.818L9.269 11.696L22.635 4.25L30 8.351V12.906L15.003 21.256L0 12.906V8.351L15.003 0L20.731 3.191L16.915 5.311L15.003 4.25L3.541 10.629C7.365 12.751 11.181 14.879 15.003 17.007ZM18.819 31.878L15.003 34L0 25.649V21.4L18.819 31.878Z" fill="#004AAD"/>
</g>
</g>
<path d="M48.42 24.12C47.3533 24.12 46.3667 23.9467 45.46 23.6C44.5667 23.24 43.7867 22.74 43.12 22.1C42.4667 21.46 41.9533 20.7067 41.58 19.84C41.22 18.9733 41.04 18.0267 41.04 17C41.04 15.9733 41.22 15.0267 41.58 14.16C41.9533 13.2933 42.4733 12.54 43.14 11.9C43.8067 11.26 44.5867 10.7667 45.48 10.42C46.3867 10.06 47.3733 9.88 48.44 9.88C49.5067 9.88 50.48 10.0467 51.36 10.38C52.2533 10.7133 53.0133 11.22 53.64 11.9L52.72 12.84C52.1333 12.2533 51.4867 11.8333 50.78 11.58C50.0733 11.3267 49.3133 11.2 48.5 11.2C47.6333 11.2 46.8333 11.3467 46.1 11.64C45.38 11.92 44.7467 12.3267 44.2 12.86C43.6667 13.38 43.2467 13.9933 42.94 14.7C42.6467 15.3933 42.5 16.16 42.5 17C42.5 17.8267 42.6467 18.5933 42.94 19.3C43.2467 20.0067 43.6667 20.6267 44.2 21.16C44.7467 21.68 45.38 22.0867 46.1 22.38C46.8333 22.66 47.6267 22.8 48.48 22.8C49.28 22.8 50.0333 22.68 50.74 22.44C51.46 22.2 52.12 21.7933 52.72 21.22L53.56 22.34C52.8933 22.9267 52.1133 23.3733 51.22 23.68C50.3267 23.9733 49.3933 24.12 48.42 24.12ZM52.14 22.16V17H53.56V22.34L52.14 22.16ZM56.9487 24V10H62.1888C63.3754 10 64.3954 10.1933 65.2488 10.58C66.1021 10.9533 66.7554 11.5 67.2088 12.22C67.6754 12.9267 67.9088 13.7867 67.9088 14.8C67.9088 15.7867 67.6754 16.64 67.2088 17.36C66.7554 18.0667 66.1021 18.6133 65.2488 19C64.3954 19.3733 63.3754 19.56 62.1888 19.56H57.7687L58.4287 18.88V24H56.9487ZM66.5087 24L62.9088 18.92H64.5088L68.1288 24H66.5087ZM58.4287 19L57.7687 18.3H62.1488C63.5488 18.3 64.6088 17.9933 65.3288 17.38C66.0621 16.7667 66.4287 15.9067 66.4287 14.8C66.4287 13.68 66.0621 12.8133 65.3288 12.2C64.6088 11.5867 63.5488 11.28 62.1488 11.28H57.7687L58.4287 10.58V19ZM76.7219 24.12C75.6685 24.12 74.6885 23.9467 73.7819 23.6C72.8885 23.24 72.1085 22.74 71.4419 22.1C70.7885 21.4467 70.2752 20.6933 69.9019 19.84C69.5419 18.9733 69.3619 18.0267 69.3619 17C69.3619 15.9733 69.5419 15.0333 69.9019 14.18C70.2752 13.3133 70.7885 12.56 71.4419 11.92C72.1085 11.2667 72.8885 10.7667 73.7819 10.42C74.6752 10.06 75.6552 9.88 76.7219 9.88C77.7752 9.88 78.7485 10.06 79.6419 10.42C80.5352 10.7667 81.3085 11.26 81.9619 11.9C82.6285 12.54 83.1419 13.2933 83.5019 14.16C83.8752 15.0267 84.0619 15.9733 84.0619 17C84.0619 18.0267 83.8752 18.9733 83.5019 19.84C83.1419 20.7067 82.6285 21.46 81.9619 22.1C81.3085 22.74 80.5352 23.24 79.6419 23.6C78.7485 23.9467 77.7752 24.12 76.7219 24.12ZM76.7219 22.8C77.5619 22.8 78.3352 22.66 79.0419 22.38C79.7619 22.0867 80.3819 21.68 80.9019 21.16C81.4352 20.6267 81.8485 20.0133 82.1419 19.32C82.4352 18.6133 82.5819 17.84 82.5819 17C82.5819 16.16 82.4352 15.3933 82.1419 14.7C81.8485 13.9933 81.4352 13.38 80.9019 12.86C80.3819 12.3267 79.7619 11.92 79.0419 11.64C78.3352 11.3467 77.5619 11.2 76.7219 11.2C75.8819 11.2 75.1019 11.3467 74.3819 11.64C73.6619 11.92 73.0352 12.3267 72.5019 12.86C71.9819 13.38 71.5685 13.9933 71.2619 14.7C70.9685 15.3933 70.8219 16.16 70.8219 17C70.8219 17.8267 70.9685 18.5933 71.2619 19.3C71.5685 20.0067 71.9819 20.6267 72.5019 21.16C73.0352 21.68 73.6619 22.0867 74.3819 22.38C75.1019 22.66 75.8819 22.8 76.7219 22.8ZM89.3491 24L84.6291 10H86.1491L90.5691 23.18H89.8091L94.3691 10H95.7291L100.229 23.18H99.5091L103.969 10H105.389L100.669 24H99.1091L94.8091 11.5H95.2091L90.8891 24H89.3491ZM107.303 24V10H108.523L114.923 20.92H114.283L120.623 10H121.843V24H120.423V12.22H120.763L114.923 22.22H114.223L108.343 12.22H108.723V24H107.303ZM123.364 24L129.764 10H131.224L137.624 24H136.064L130.184 10.86H130.784L124.904 24H123.364ZM125.884 20.26L126.324 19.06H134.464L134.904 20.26H125.884ZM136.556 24L142.296 16.24V17.38L136.896 10H138.596L143.136 16.16L142.476 16.18L147.016 10H148.616L143.276 17.28V16.24L148.996 24H147.276L142.436 17.42H143.056L138.256 24H136.556Z" fill="white"/>
<defs>
<clipPath id="clip0_737_1513">
<rect width="30" height="34" fill="white"/>
</clipPath>
<clipPath id="clip1_737_1513">
<rect width="30" height="34" fill="white"/>
</clipPath>
</defs>
</svg>
